HIERARCHY
ROOT RootJoint
{
    OFFSET   0.000000   0.000000   0.000000
    CHANNELS 6 Xposition Yposition Zposition Xrotation Yrotation Zrotation
    JOINT pelvis_lowerback
    {
        OFFSET   0.000000   0.093605   0.000000
        CHANNELS 3 Xrotation Yrotation Zrotation
        JOINT lowerback_torso
        {
            OFFSET   0.000000   0.100000   0.000000
            CHANNELS 3 Xrotation Yrotation Zrotation
            JOINT torso_head
            {
                OFFSET   0.000000   0.282350   0.000000
                CHANNELS 3 Xrotation Yrotation Zrotation
                End Site
                {
                    OFFSET   0.000000   0.192650   0.000000
                }
            }
            JOINT rTorso_Clavicle
            {
                OFFSET  -0.001000   0.157500   0.000000
                CHANNELS 3 Xrotation Yrotation Zrotation
                JOINT rShoulder
                {
                    OFFSET  -0.117647   0.000000   0.000000
                    CHANNELS 3 Xrotation Yrotation Zrotation
                    JOINT rElbow
                    {
                        OFFSET  -0.245000   0.000000   0.000000
                        CHANNELS 3 Xrotation Yrotation Zrotation
                        JOINT rWrist
                        {
                            OFFSET  -0.240000   0.000000   0.000000
                            CHANNELS 3 Xrotation Yrotation Zrotation
                            End Site
                            {
                                OFFSET  -0.116353  -0.002500   0.000000
                            }
                        }
                    }
                }
            }
            JOINT lTorso_Clavicle
            {
                OFFSET   0.001000   0.157500   0.000000
                CHANNELS 3 Xrotation Yrotation Zrotation
                JOINT lShoulder
                {
                    OFFSET   0.117647   0.000000   0.000000
                    CHANNELS 3 Xrotation Yrotation Zrotation
                    JOINT lElbow
                    {
                        OFFSET   0.245000   0.000000   0.000000
                        CHANNELS 3 Xrotation Yrotation Zrotation
                        JOINT lWrist
                        {
                            OFFSET   0.240000   0.000000   0.000000
                            CHANNELS 3 Xrotation Yrotation Zrotation
                            End Site
                            {
                                OFFSET   0.116353  -0.002500   0.000000
                            }
                        }
                    }
                }
            }
        }
    }
    JOINT rHip
    {
        OFFSET  -0.100000  -0.051395   0.000000
        CHANNELS 3 Xrotation Yrotation Zrotation
        JOINT rKnee
        {
            OFFSET   0.000000  -0.410000   0.000000
            CHANNELS 3 Xrotation Yrotation Zrotation
            JOINT rAnkle
            {
                OFFSET   0.000000  -0.390000   0.000000
                CHANNELS 3 Xrotation Yrotation Zrotation
                JOINT rToeJoint
                {
                    OFFSET   0.000000  -0.050000   0.130000
                    CHANNELS 3 Xrotation Yrotation Zrotation
                    End Site
                    {
                        OFFSET  -0.010000   0.002000   0.060000
                    }
                }
            }
        }
    }
    JOINT lHip
    {
        OFFSET   0.100000  -0.051395   0.000000
        CHANNELS 3 Xrotation Yrotation Zrotation
        JOINT lKnee
        {
            OFFSET   0.000000  -0.410000   0.000000
            CHANNELS 3 Xrotation Yrotation Zrotation
            JOINT lAnkle
            {
                OFFSET   0.000000  -0.390000   0.000000
                CHANNELS 3 Xrotation Yrotation Zrotation
                JOINT lToeJoint
                {
                    OFFSET   0.000000  -0.050000   0.130000
                    CHANNELS 3 Xrotation Yrotation Zrotation
                    End Site
                    {
                        OFFSET   0.010000   0.002000   0.060000
                    }
                }
            }
        }
    }
}
MOTION
Frames: 12
Frame Time:   0.008333
 -2.226671   0.896977   3.895820   0.713159   1.792910  -7.306634   2.546661  -2.878108  -2.276847   5.647106  -5.148606   4.448813   4.942110  -7.277250   5.997693  -0.311100  -8.000941   9.077682 -15.221294 -14.535056  36.919836  -0.028645  59.112371   0.018058  -2.596692   3.545395  -6.389372   4.076999   4.304597  -4.482096  -3.236384 -19.506059 -41.846008 179.822423 -88.395622 179.822418   0.995489  -6.167714   0.739456  -9.933940 -13.099786 -12.162648  18.735259   0.001526   0.001156   0.645055 -11.399833   4.902229  -1.729916  -0.000102   0.000056 -13.151021   5.831859  10.681040  33.951995  -0.000120   0.003463 -22.657355   8.605360   4.645581  -0.001124   0.000504   0.000052
 -2.226554   0.897589   3.894845   0.775618   1.582663  -7.163774   2.576360  -2.879422  -2.306505   5.580074  -5.092446   4.409578   4.836310  -7.187641   5.960427  -0.344846  -7.834910   9.159132 -15.006733 -14.221764  37.146113  -0.034908  57.638012   0.023915  -2.593722   3.745780  -6.508312   4.020761   4.223900  -4.657496  -3.144818 -19.258791 -41.801495 179.681375 -89.316068 179.682014   0.963572  -6.320073   1.073061  -9.756664 -12.945109 -12.185015  19.611137   0.001052   0.000915  -0.009584 -11.580033   4.769947  -1.662758   0.000045  -0.000081 -13.115184   5.934376  10.485210  33.654046  -0.000095   0.003210 -22.429022   8.792226   4.788361   0.039541   0.000372   0.000050
 -2.226511   0.898074   3.893918   0.820552   1.366149  -7.007539   2.602266  -2.881191  -2.341864   5.522630  -5.037721   4.362238   4.725723  -7.104195   5.920110  -0.371406  -7.659790   9.261521 -14.796116 -13.928920  37.370027  -0.038778  56.224900   0.027344  -2.610539   3.725151  -6.562477   3.989978   4.129757  -4.855642  -3.039211 -19.025686 -41.770515   0.676846 -89.785380   0.678310   0.930719  -6.280605   1.336888  -9.562771 -12.809453 -12.192002  20.489841   0.000395   0.000602  -0.618799 -11.748120   4.644270  -1.602402   0.000136  -0.000183 -13.077018   6.034109  10.286566  33.402603  -0.000051   0.002951 -22.221001   8.969757   4.922901   0.050556   0.000289   0.000041
 -2.226541   0.898438   3.893011   0.862169   1.142648  -6.838154   2.621493  -2.881694  -2.383157   5.469126  -4.985787   4.311694   4.618997  -7.026628   5.881198  -0.392850  -7.493190   9.375192 -14.593913 -13.656788  37.590349  -0.040406  54.900745   0.028635  -2.633444   3.644388  -6.583079   3.973972   4.038625  -5.060033  -2.930934 -18.808797 -41.751942   0.073050 -88.939305   0.075221   0.897066  -6.178215   1.550561  -9.359311 -12.688789 -12.183438  21.325788  -0.000352   0.000294  -1.187070 -11.903651   4.525303  -1.544318   0.000187  -0.000261 -13.045552   6.136022  10.083983  33.181563  -0.000003   0.002700 -22.038315   9.141296   5.046412   0.059160   0.000225   0.000032
 -2.226640   0.898696   3.892101   0.904452   0.916749  -6.656332   2.637018  -2.882837  -2.428240   5.418795  -4.937955   4.260277   4.517698  -6.954415   5.844230  -0.410885  -7.337165   9.492851 -14.402343 -13.403636  37.802916  -0.040422  53.663431   0.028499  -2.657320   3.551290  -6.587422   3.965654   3.952034  -5.262097  -2.825089 -18.607414 -41.741332   0.009236 -88.147526   0.011887   0.863546  -6.061662   1.733354  -9.151986 -12.581130 -12.161434  22.112531  -0.001118   0.000044  -1.717681 -12.047535   4.412766  -1.489833   0.000207  -0.000312 -13.023696   6.243089   9.876860  32.983068   0.000038   0.002456 -21.879849   9.310375   5.159420   0.076106   0.000168   0.000026
 -2.226805   0.898859   3.891172   0.948393   0.689761  -6.462913   2.651227  -2.884893  -2.475105   5.372027  -4.894339   4.209238   4.422314  -6.887095   5.809300  -0.426699  -7.191461   9.609829 -14.222377 -13.167694  38.005266  -0.039345  52.508175   0.027465  -2.680700   3.458427  -6.583562   3.961159   3.869841  -5.457455  -2.724040 -18.420542 -41.735731  -0.013618 -87.407892  -0.010727   0.830639  -5.945481   1.896007  -8.945427 -12.484486 -12.127809  22.850538  -0.001857  -0.000142  -2.213236 -12.180652   4.306417  -1.439099   0.000204  -0.000343 -13.010712   6.352884   9.665289  32.801845   0.000074   0.002230 -21.743083   9.474527   5.263136   0.105601   0.000117   0.000020
 -2.227033   0.898942   3.890218   0.993517   0.455605  -6.258428   2.665518  -2.885553  -2.522492   5.329061  -4.852954   4.158986   4.332975  -6.824197   5.776354  -0.441405  -7.054821   9.723272 -14.054449 -12.947027  38.196355  -0.037549  51.430048   0.025870  -2.703034   3.370060  -6.574931   3.958781   3.792480  -5.643989  -2.628478 -18.246750 -41.733269  -0.024459 -86.717404  -0.021539   0.798551  -5.833824   2.044916  -8.745002 -12.396507 -12.084507  23.541418  -0.002551  -0.000305  -2.676077 -12.303793   4.206032  -1.391999   0.000185  -0.000360 -13.002893   6.458263   9.449664  32.634100   0.000115   0.002041 -21.625516   9.626310   5.358889   0.147973   0.000068   0.000006
 -2.227291   0.899027   3.889103   1.001569   0.186150  -6.021471   2.773966  -2.884492  -2.581928   5.222471  -4.782971   4.081949   4.197081  -6.727214   5.696608  -0.452304  -6.841625   9.813380 -13.762664 -12.536590  38.377588  -0.042611  49.841783   0.032108  -2.670463   3.528075  -6.625702   3.920233   3.593324  -5.832789  -2.416406 -18.129493 -41.705402  -0.056825 -85.638874  -0.053435   0.808439  -5.982285   2.305495  -8.642840 -12.362018 -12.087453  24.435697  -0.003867  -0.001297  -3.171625 -12.489057   4.109282  -1.260266   0.000171  -0.000730 -12.961373   6.581424   9.198342  32.466856   0.000152   0.001933 -21.478037   9.832817   5.473526   0.146745   0.000055   0.000005
 -2.227647   0.899081   3.887941   1.006228  -0.082738  -5.782304   2.889146  -2.888670  -2.638215   5.130733  -4.719141   4.000601   4.057517  -6.635692   5.616027  -0.457311  -6.620838   9.917779 -13.480172 -12.150124  38.558152  -0.045377  48.330055   0.035890  -2.652326   3.499570  -6.588440   3.897611   3.379097  -6.034532  -2.203804 -18.023100 -41.687267  -0.074625 -84.593748  -0.070685   0.812020  -5.935776   2.488782  -8.549000 -12.339252 -12.075176  25.304350  -0.005083  -0.002046  -3.632973 -12.662900   4.017226  -1.138841   0.000128  -0.000983 -12.922478   6.703884   8.953565  32.306316   0.000188   0.001828 -21.334529  10.033175   5.583065   0.149103   0.000043   0.000004
 -2.228098   0.899088   3.886738   1.012622  -0.353537  -5.540194   3.005215  -2.895035  -2.694127   5.053355  -4.661716   3.920239   3.925549  -6.550274   5.539629  -0.459991  -6.410743  10.029011 -13.213110 -11.788971  38.735467  -0.046000  46.915694   0.037364  -2.639756   3.424453  -6.516522   3.884317   3.171477  -6.238175  -1.999137 -17.927315 -41.679665  -0.082775 -83.612223  -0.078431   0.812290  -5.831148   2.622874  -8.459935 -12.320873 -12.049323  26.120738  -0.006093  -0.002532  -4.063775 -12.824335   3.929884  -1.027098   0.000066  -0.001138 -12.889270   6.820927   8.714605  32.152311   0.000228   0.001735 -21.202061  10.221154   5.685889   0.165213   0.000022   0.000000
 -2.228635   0.899046   3.885495   1.021256  -0.628795  -5.294360   3.121633  -2.902319  -2.749467   4.988496  -4.609362   3.841981   3.802601  -6.470443   5.467767  -0.461375  -6.213794  10.140980 -12.962685 -11.451833  38.905500  -0.045074  45.595015   0.037187  -2.628702   3.342112  -6.432202   3.876287   2.974508  -6.437441  -1.804787 -17.840218 -41.678812  -0.085340 -82.694903  -0.080825   0.811328  -5.716344   2.728290  -8.377149 -12.305282 -12.013844  26.882964  -0.006893  -0.002831  -4.466324 -12.974189   3.847099  -0.924744  -0.000005  -0.001220 -12.861567   6.932083   8.480396  32.005129   0.000270   0.001654 -21.082652  10.396539   5.781883   0.197693  -0.000006  -0.000012
 -2.229255   0.898953   3.884213   1.031796  -0.909705  -5.044714   3.238112  -2.910200  -2.803513   4.934678  -4.561402   3.766358   3.688564  -6.395784   5.400362  -0.462059  -6.030073  10.249923 -12.728944 -11.137152  39.066009  -0.043109  44.362402   0.035888  -2.618078   3.262061  -6.344798   3.871225   2.789012  -6.629009  -1.621495 -17.760381 -41.681994  -0.084631 -81.838560  -0.080175   0.809889  -5.603929   2.815749  -8.301429 -12.291823 -11.971516  27.593125  -0.007496  -0.003000  -4.842512 -13.113336   3.768723  -0.831067  -0.000077  -0.001251 -12.838649   7.037624   8.250689  31.864785   0.000314   0.001585 -20.976483  10.559929   5.871368   0.246755  -0.000041  -0.000036
